<svg width="81" height="76" viewBox="0 0 81 76" fill="none" xmlns="http://www.w3.org/2000/svg">
<path d="M48.5252 73.9558H46.2477C45.6693 73.9558 46.2477 73.9558 43.7533 73.6305C42.9343 73.5236 40.4998 73.6305 38.7646 73.6305C37.6324 73.6305 33.7759 73.9558 31.39 73.9558C29.0041 73.9558 26.2929 72.4375 24.3407 71.2446C22.7791 70.2902 20.7257 66.8704 19.8943 65.2798C18.7736 62.7493 18.0506 61.1587 16.207 57.4714L14.038 53.1334L8.18166 41.8545L5.90421 37.5165C3.5183 33.8292 2 28.8839 2 28.1898C2 27.3222 2 24.2856 6.33801 22.5504C9.80842 21.1622 12.4835 23.3457 13.3873 24.611C15.5924 28.3344 20.2196 36.2151 21.0872 37.9503C21.9548 39.6855 22.5332 39.7578 22.714 39.5771L21.8464 36.3236C20.5811 31.6602 17.9205 21.531 17.3999 18.3208C16.7492 14.3082 16.3154 12.1392 16.8577 9.64483C17.3999 7.15047 20.4365 5.95752 23.3647 5.95752C25.7072 5.95752 27.8112 7.47582 28.4619 9.64483L29.4379 13.1152C30.8116 19.08 33.6458 31.2481 33.9928 32.2025C34.3399 33.1568 34.6435 33.3954 34.752 33.3954C34.7881 27.756 34.6218 15.5445 34.5351 13.1152C34.4266 10.0786 34.5351 7.04202 35.8365 4.54767C37.1379 2.05331 41.0421 1.72796 43.3195 2.16176C45.597 2.59556 46.6815 4.54767 47.1153 6.60822L47.5491 10.7293V32.8532C47.5491 33.5473 48.1275 33.5039 48.4167 33.3954L50.6942 25.8039C51.9594 21.0321 54.555 11.3367 54.8153 10.7293C55.1406 9.97018 55.8998 7.36737 59.0448 5.95752C62.1899 4.54767 65.9856 6.39132 67.287 8.23497C68.3282 9.7099 67.8293 12.573 67.6124 13.4406L65.2265 21.6828L59.4786 40.2278L58.3941 43.6982C59.5509 42.8667 62.6454 40.6182 65.7687 38.2757C69.6729 35.3475 71.8419 34.3715 74.2279 34.3715C76.6138 34.3715 77.5898 35.5644 78.5659 36.6489C79.5419 37.7334 79.5419 40.3362 79.325 42.1799C79.1515 43.6548 78.0959 45.0358 77.5898 45.5419C75.4208 47.7832 70.8008 52.5477 69.6729 53.6756C68.5451 54.8035 67.3232 56.9653 66.8532 57.9052L64.6842 62.8939C63.5997 65.3882 60.8885 68.5333 59.0448 70.377C57.2012 72.2206 54.1646 73.0882 52.7547 73.6305C51.6268 74.0643 49.4651 74.0281 48.5252 73.9558Z" fill="#F1DBBF"/>
<path d="M38.4393 61.484C38.5477 59.8211 39.5962 56.243 42.0181 54.1094C46.573 50.0968 49.2843 49.3376 53.0801 49.663M46.2477 73.9558H48.5252C49.4651 74.0281 51.6268 74.0643 52.7547 73.6305C54.1646 73.0882 57.2012 72.2206 59.0448 70.377C60.8885 68.5333 63.5997 65.3882 64.6842 62.8939C65.5518 60.8984 66.4917 58.7366 66.8532 57.9052C67.3232 56.9653 68.5451 54.8035 69.6729 53.6756C70.8008 52.5477 75.4208 47.7832 77.5898 45.5419C78.0959 45.0358 79.1515 43.6548 79.325 42.1799C79.5419 40.3362 79.5419 37.7334 78.5659 36.6489C77.5898 35.5644 76.6138 34.3715 74.2279 34.3715C71.842 34.3715 69.6729 35.3475 65.7687 38.2757C62.6454 40.6182 59.5509 42.8667 58.3941 43.6982L59.4786 40.2278L65.2265 21.6828L67.6124 13.4406C67.8293 12.573 68.3282 9.7099 67.287 8.23497C65.9856 6.39132 62.1899 4.54767 59.0448 5.95752C55.8998 7.36737 55.1406 9.97018 54.8153 10.7293C54.555 11.3367 51.9594 21.0321 50.6942 25.8039L48.4167 33.3954C48.1275 33.5039 47.5491 33.5473 47.5491 32.8532C47.5491 32.1591 47.5491 17.8147 47.5491 10.7293L47.1153 6.60822C46.6815 4.54767 45.597 2.59556 43.3195 2.16176C41.0421 1.72796 37.1379 2.05331 35.8365 4.54767C34.5351 7.04202 34.4266 10.0786 34.5351 13.1152C34.6218 15.5445 34.7881 27.756 34.752 33.3954C34.6435 33.3954 34.3399 33.1568 33.9928 32.2025C33.6458 31.2481 30.8116 19.08 29.4379 13.1152L28.4619 9.64483C27.8112 7.47582 25.7072 5.95752 23.3647 5.95752C20.4365 5.95752 17.3999 7.15047 16.8577 9.64483C16.3154 12.1392 16.7492 14.3082 17.3999 18.3208C17.9205 21.531 20.5811 31.6602 21.8464 36.3236L22.714 39.5771C22.5332 39.7578 21.9548 39.6855 21.0872 37.9503C20.2196 36.2151 15.5924 28.3344 13.3873 24.611C12.4835 23.3457 9.80842 21.1622 6.33801 22.5504C2 24.2856 2 27.3222 2 28.1898C2 28.8839 3.5183 33.8292 5.90421 37.5165L8.18166 41.8545L14.038 53.1334C14.6887 54.4348 15.8019 56.6612 16.207 57.4714C18.0506 61.1587 18.7736 62.7493 19.8943 65.2798C20.7257 66.8704 22.7791 70.2902 24.3407 71.2446C26.2929 72.4375 29.0041 73.9558 31.39 73.9558C33.7759 73.9558 37.6324 73.6305 38.7646 73.6305C40.4998 73.6305 42.9343 73.5236 43.7533 73.6305C46.2477 73.9558 45.6693 73.9558 46.2477 73.9558Z" stroke="black" stroke-width="3" stroke-linecap="round"/>
</svg>
