<svg width="77" height="76" viewBox="0 0 77 76" fill="none" xmlns="http://www.w3.org/2000/svg">
<path d="M73.0397 52.4716C72.3711 55.2573 68.3968 62.2679 66.4933 65.4251C66.2147 65.7965 65.1283 66.9293 63.0112 68.4893C60.3647 70.4393 53.9576 73.225 51.3112 73.3643C48.6648 73.5036 44.6255 73.5036 42.6755 72.9464C40.7256 72.3893 36.547 72.8072 35.2934 72.9464C34.0399 73.0857 32.0899 73.3643 27.7721 73.9214C23.4542 74.4786 17.7435 71.9714 14.9578 69.6036C11.9227 67.0238 9.10788 62.7786 7.9936 60.8287C7.10218 59.2687 4.79005 52.0537 4.09362 48.0144L2.28292 32.6931C1.86506 28.9324 1.94863 20.3525 2.28292 17.7896C2.70077 14.5861 2.84006 13.8896 5.34718 11.8004C7.87251 9.69592 11.615 9.5718 13.9829 9.71109C15.8771 9.82251 17.6507 10.8718 18.3007 11.3825C18.44 10.9647 18.8857 9.85037 19.5542 8.73609C20.39 7.34324 23.1757 5.53254 26.3792 4.9754C28.9421 4.52969 30.8363 4.9754 32.647 6.08968C34.1792 7.03254 35.4082 8.03966 35.572 6.64681C35.6749 5.77193 35.7113 4.69683 37.522 3.1647C39.3327 1.63256 44.347 1.91113 46.7148 2.32899C49.0827 2.74684 50.7541 5.16111 51.5898 6.36825C52.1469 5.48611 53.9944 3.52048 56.7433 2.88613C60.3647 2.05042 62.8508 2.73142 64.9611 4.27897C67.0504 5.81111 68.4433 7.62181 68.4433 9.98966V18.6253C68.4433 20.2967 68.4711 20.4639 70.8111 23.9181C73.7361 28.236 74.7111 33.6681 74.8504 40.2145C74.9897 46.7609 73.8754 48.9894 73.0397 52.4716Z" fill="#F1DBBF"/>
<path d="M68.4433 18.6253C68.4433 20.2967 68.4711 20.4639 70.8111 23.9181C73.7361 28.236 74.7111 33.6681 74.8504 40.2145C74.9897 46.7609 73.8754 48.9894 73.0397 52.4716C72.3711 55.2573 68.3968 62.2679 66.4933 65.4251C66.2147 65.7965 65.1283 66.9293 63.0111 68.4893C60.3647 70.4393 53.9576 73.225 51.3112 73.3643C48.6648 73.5036 44.6255 73.5036 42.6756 72.9464C40.7256 72.3893 36.547 72.8072 35.2934 72.9464C34.0399 73.0857 32.0899 73.3643 27.7721 73.9214C23.4542 74.4786 17.7435 71.9714 14.9578 69.6036C11.9227 67.0238 9.10788 62.7786 7.9936 60.8287C7.10218 59.2687 4.79005 52.0537 4.09362 48.0144L2.28292 32.6931M68.4433 18.6253V9.98966C68.4433 7.62181 67.0504 5.81111 64.9611 4.27897C62.8508 2.73142 60.3647 2.05042 56.7433 2.88613C53.9944 3.52048 52.1469 5.48611 51.5898 6.36825M68.4433 18.6253L67.8861 23.0824C67.7933 24.5217 67.8861 23.6396 67.0504 28.9324C66.8238 30.3675 65.9826 31.7645 65.5183 32.2752L64.1254 33.8007M51.5898 6.36825V16.2575V30.186M51.5898 6.36825C50.7541 5.16111 49.0827 2.74684 46.7148 2.32899C44.347 1.91113 39.3327 1.63256 37.522 3.1647C35.7113 4.69683 35.6749 5.77193 35.572 6.64682M51.5898 30.186H56.1862C60.6433 30.4645 61.3079 30.9954 62.5933 32.2752C64.1254 33.8007 63.4741 33.276 64.1254 33.8007M51.5898 30.186C47.1791 30.3253 37.7449 30.7153 35.2934 31.161M67.8861 37.1502C66.4933 36.3145 65.5259 34.9289 64.1254 33.8007M35.572 6.64682C35.4082 8.03966 34.1792 7.03254 32.647 6.08968C30.8363 4.9754 28.9421 4.52969 26.3792 4.9754C23.1757 5.53254 20.39 7.34324 19.5542 8.73609C18.8857 9.85037 18.44 10.9647 18.3007 11.3825M35.572 6.64682L35.0149 11.3825L35.2934 20.1575V31.161M18.3007 11.3825C17.6507 10.8718 15.8771 9.82251 13.9828 9.71109C11.615 9.5718 7.87251 9.69592 5.34718 11.8004C2.84006 13.8896 2.70077 14.5861 2.28292 17.7896C1.94863 20.3525 1.86506 28.9324 2.28292 32.6931M18.3007 11.3825C19.3035 12.0034 19.5542 13.3126 19.5542 13.8896C19.5542 19.461 19.6657 30.9381 20.1114 32.2752M2.28292 32.6931C2.84006 34.5038 4.37219 36.6395 6.46147 37.5681C7.71503 38.1252 11.9877 39.0418 13.9828 38.5431C16.2114 37.9859 18.0559 35.9588 18.9971 34.7824C20.1114 33.3895 19.9257 32.6467 20.1114 32.2752M41.2827 58.3215V54.9787C41.5613 51.9144 42.5357 51.1026 43.5113 49.9644C45.1827 48.0144 45.7805 48.146 46.7148 46.9002C47.5505 45.7859 42.2577 46.668 39.3327 46.9002C37.1042 46.9002 33.7892 46.7887 32.2292 44.6716C30.2792 42.0252 28.8863 40.0752 30.1399 37.1502M30.1399 37.1502C31.3935 34.2252 32.2292 31.7181 35.2934 31.161M30.1399 37.1502C29.3971 37.1966 27.4378 37.0945 25.5435 36.3145C23.1757 35.3395 20.6685 33.9467 20.1114 32.2752" stroke="black" stroke-width="3" stroke-linecap="round"/>
</svg>
