<svg width="56" height="76" viewBox="0 0 56 76" fill="none" xmlns="http://www.w3.org/2000/svg">
<path d="M53.6151 57.4009C53.165 60.1017 51.1019 64.0028 50.1266 65.6158C49.9766 65.8409 49.609 67.0112 47.5384 69.4419C44.9502 72.4803 41.188 73.0937 39.3235 73.3805C36.3977 73.8306 33.4224 73.3805 31.7839 73.3805C29.5332 73.3805 27.9203 73.6806 26.7199 73.8306C25.9322 73.9432 23.3755 74.1476 19.968 73.8306C15.1291 73.3805 12.413 70.6797 9.72758 67.8664C7.3644 65.3907 5.78895 59.7641 5.33882 58.6388C4.97872 57.7385 4.17599 55.1128 3.98843 53.9124L2.75057 48.961C2.52552 47.273 1.61108 45.2102 2.18791 43.672C3.19316 40.9914 4.97443 39.9736 6.54141 39.0783L6.57667 39.0582C8.71479 37.8364 10.0652 38.2705 11.5281 38.8331C11.5656 38.458 11.367 37.556 11.5281 37.0326C11.9782 35.5697 12.7841 33.8866 14.5665 32.4188C16.4795 30.8433 18.28 31.0684 20.7557 31.5185L16.9296 15.8766C16.2169 13.851 14.9941 9.14714 15.8043 6.5364C16.8171 3.27296 18.8427 2.7103 22.7813 2.14764C25.9322 1.69751 28.2204 4.28575 28.9706 5.63614L31.8964 17.6771L34.7097 28.2551L36.8478 21.2781C37.7106 17.6396 39.5936 9.75482 40.2238 7.32412C41.0115 4.28575 43.0371 2.7103 45.0627 2.14764C47.0883 1.58498 50.3517 2.7103 52.4898 4.17322C54.2003 5.34356 54.3278 8.78704 54.1778 10.3625C52.7524 16.7768 49.7665 30.1682 49.2264 32.4188C48.6862 34.6694 48.5512 36.4324 48.5512 37.0326C48.5512 37.4827 49.0238 39.3733 50.9144 43.3344C51.2658 44.0707 51.5848 44.8243 51.8715 45.5851C53.5129 49.9403 54.0941 54.527 53.6151 57.4009Z" fill="#F1DBBF"/>
<path d="M20.7557 31.5185L16.9296 15.8766C16.2169 13.851 14.9941 9.14714 15.8043 6.5364C16.8171 3.27296 18.8427 2.7103 22.7813 2.14764C25.9322 1.69751 28.2204 4.28575 28.9706 5.63614L31.8964 17.6771L34.7097 28.2551L36.8478 21.2781C37.7106 17.6396 39.5936 9.75482 40.2238 7.32412C41.0115 4.28575 43.0371 2.7103 45.0627 2.14764C47.0883 1.58498 50.3517 2.7103 52.4898 4.17322C54.2003 5.34356 54.3278 8.78704 54.1778 10.3625C52.7524 16.7768 49.7665 30.1682 49.2264 32.4188C48.6862 34.6694 48.5512 36.4324 48.5512 37.0326C48.5512 37.4827 49.0238 39.3733 50.9144 43.3344C51.2658 44.0707 51.5848 44.8243 51.8715 45.5851M20.7557 31.5185C18.28 31.0684 16.4795 30.8433 14.5665 32.4188C12.7841 33.8866 11.9782 35.5697 11.5281 37.0326C11.367 37.556 11.5656 38.458 11.5281 38.8331M20.7557 31.5185C21.0183 31.8186 21.4309 31.8561 22.6688 34.1068C23.4509 35.5288 24.1692 37.8203 24.3568 38.8331M11.5281 38.8331C10.0652 38.2705 8.71479 37.8364 6.57667 39.0582C5.00122 39.9585 3.20071 40.9712 2.18791 43.672C1.61108 45.2102 2.52552 47.273 2.75057 48.961L3.98843 53.9124M11.5281 38.8331L12.7659 40.9712C14.5665 44.3472 16.7271 49.7713 17.2672 51.6618M3.98843 53.9124C4.17599 55.1128 4.97872 57.7385 5.33882 58.6388C5.78895 59.7641 7.3644 65.3907 9.72758 67.8664C12.413 70.6797 15.1291 73.3805 19.968 73.8306C23.3755 74.1476 25.9322 73.9432 26.7199 73.8306C27.9203 73.6806 29.5332 73.3805 31.7839 73.3805C33.4224 73.3805 36.3977 73.8306 39.3235 73.3805C41.188 73.0937 44.9502 72.4803 47.5384 69.4419C49.609 67.0112 49.9766 65.8409 50.1266 65.6158C51.1019 64.0028 53.165 60.1017 53.6151 57.4009C54.0941 54.527 53.5129 49.9403 51.8715 45.5851M3.98843 53.9124L5.11376 55.1503L6.91427 56.8383C8.60225 58.1887 8.37719 58.1104 10.4028 58.6388C12.991 59.314 13.4411 59.5391 15.5792 57.5135C17.14 56.0349 17.9424 54.025 17.2672 51.6618M17.2672 51.6618C17.6798 52.2995 18.7752 53.7099 19.8555 54.25C21.2059 54.9252 23.7941 55.1503 25.3695 53.9124C26.945 52.6746 27.7327 51.2117 28.0703 49.8613C28.3105 48.9006 28.0703 48.1733 28.0703 47.9482M28.0703 47.9482C28.5205 48.0608 29.8033 48.3534 31.3338 48.6234C32.8642 48.8935 34.072 48.961 34.4847 48.961C33.7344 49.9738 32.189 52.2245 32.009 53.1247C31.7839 54.25 31.3338 55.713 31.3338 57.5135C31.3338 58.9539 31.1087 60.6644 30.9962 61.3396M28.0703 47.9482C26.8325 47.6388 25.4146 47.3856 24.6944 46.4853C23.344 44.7973 22.9511 43.5261 23.2314 41.984C23.6816 39.5083 24.1692 39.3958 24.3568 38.8331M24.3568 38.8331C24.6193 38.533 25.347 37.8428 26.1573 37.4827C27.8453 36.7325 30.7711 37.0326 34.0345 37.4827C36.2641 37.7903 43.3747 38.4955 45.2878 39.3958C47.9885 40.6667 48.4387 40.9712 50.2392 43.1094L51.8715 45.5851" stroke="black" stroke-width="3" stroke-linecap="round"/>
</svg>
